<svg width="185" height="24" viewBox="0 0 185 24" fill="none" xmlns="http://www.w3.org/2000/svg">
<path d="M0.268633 23V1.3H5.32163L17.2876 15.746H14.9006V1.3H20.9146V23H15.8616L3.89563 8.554H6.28263V23H0.268633ZM35.3972 23.279C33.5579 23.279 31.9252 22.907 30.4992 22.163C29.0732 21.419 27.9469 20.396 27.1202 19.094C26.3142 17.7713 25.9112 16.2627 25.9112 14.568C25.9112 12.8733 26.3142 11.375 27.1202 10.073C27.9469 8.771 29.0732 7.75833 30.4992 7.035C31.9252 6.291 33.5579 5.919 35.3972 5.919C37.2366 5.919 38.8692 6.291 40.2952 7.035C41.7419 7.75833 42.8682 8.771 43.6742 10.073C44.4802 11.375 44.8832 12.8733 44.8832 14.568C44.8832 16.2627 44.4802 17.7713 43.6742 19.094C42.8682 20.396 41.7419 21.419 40.2952 22.163C38.8692 22.907 37.2366 23.279 35.3972 23.279ZM35.3972 18.598C36.0792 18.598 36.6786 18.443 37.1952 18.133C37.7326 17.823 38.1562 17.3683 38.4662 16.769C38.7762 16.149 38.9312 15.4153 38.9312 14.568C38.9312 13.7207 38.7762 13.0077 38.4662 12.429C38.1562 11.8297 37.7326 11.375 37.1952 11.065C36.6786 10.755 36.0792 10.6 35.3972 10.6C34.7359 10.6 34.1366 10.755 33.5992 11.065C33.0826 11.375 32.6589 11.8297 32.3282 12.429C32.0182 13.0077 31.8632 13.7207 31.8632 14.568C31.8632 15.4153 32.0182 16.149 32.3282 16.769C32.6589 17.3683 33.0826 17.823 33.5992 18.133C34.1366 18.443 34.7359 18.598 35.3972 18.598ZM53.8386 23L46.9256 6.198H52.9706L58.4886 20.241H55.4506L61.2476 6.198H66.8586L59.9146 23H53.8386ZM80.067 23V19.869L79.664 19.094V13.328C79.664 12.398 79.3747 11.685 78.796 11.189C78.238 10.6723 77.339 10.414 76.099 10.414C75.293 10.414 74.4767 10.5483 73.65 10.817C72.8234 11.065 72.1207 11.4163 71.542 11.871L69.558 7.872C70.5087 7.252 71.6454 6.77667 72.968 6.446C74.3114 6.09467 75.6444 5.919 76.967 5.919C79.695 5.919 81.803 6.54933 83.291 7.81C84.7997 9.05 85.554 11.003 85.554 13.669V23H80.067ZM75.107 23.279C73.7637 23.279 72.627 23.0517 71.697 22.597C70.767 22.1423 70.054 21.5223 69.558 20.737C69.0827 19.9517 68.845 19.0733 68.845 18.102C68.845 17.0687 69.1034 16.18 69.62 15.436C70.1574 14.6713 70.9737 14.0927 72.069 13.7C73.1644 13.2867 74.58 13.08 76.316 13.08H80.284V16.149H77.122C76.1714 16.149 75.4997 16.304 75.107 16.614C74.735 16.924 74.549 17.3373 74.549 17.854C74.549 18.3707 74.7454 18.784 75.138 19.094C75.5307 19.404 76.068 19.559 76.75 19.559C77.3907 19.559 77.9694 19.404 78.486 19.094C79.0234 18.7633 79.416 18.2673 79.664 17.606L80.47 19.776C80.16 20.9333 79.5504 21.8117 78.641 22.411C77.7524 22.9897 76.5744 23.279 75.107 23.279Z" fill="#E7B944"/>
<path d="M99.1769 23.434C97.3995 23.434 95.6842 23.217 94.0309 22.783C92.3982 22.3283 91.0652 21.7497 90.0319 21.047L92.0469 16.521C93.0182 17.141 94.1342 17.6577 95.3949 18.071C96.6762 18.4637 97.9472 18.66 99.2079 18.66C100.055 18.66 100.737 18.5877 101.254 18.443C101.771 18.2777 102.143 18.071 102.37 17.823C102.618 17.5543 102.742 17.2443 102.742 16.893C102.742 16.397 102.515 16.0043 102.06 15.715C101.605 15.4257 101.016 15.188 100.293 15.002C99.5695 14.816 98.7635 14.63 97.8749 14.444C97.0069 14.258 96.1285 14.0203 95.2399 13.731C94.3719 13.4417 93.5762 13.0697 92.8529 12.615C92.1295 12.1397 91.5405 11.53 91.0859 10.786C90.6312 10.0213 90.4039 9.06033 90.4039 7.903C90.4039 6.601 90.7552 5.423 91.4579 4.369C92.1812 3.315 93.2559 2.46767 94.6819 1.827C96.1079 1.18633 97.8852 0.865999 100.014 0.865999C101.44 0.865999 102.835 1.03133 104.199 1.362C105.584 1.672 106.813 2.137 107.888 2.757L105.997 7.314C104.964 6.756 103.941 6.34267 102.928 6.074C101.915 5.78467 100.934 5.64 99.9829 5.64C99.1355 5.64 98.4535 5.733 97.9369 5.919C97.4202 6.08433 97.0482 6.31167 96.8209 6.601C96.5935 6.89033 96.4799 7.221 96.4799 7.593C96.4799 8.06833 96.6969 8.45067 97.1309 8.74C97.5855 9.00867 98.1745 9.236 98.8979 9.422C99.6419 9.58733 100.448 9.763 101.316 9.949C102.205 10.135 103.083 10.3727 103.951 10.662C104.84 10.9307 105.646 11.3027 106.369 11.778C107.092 12.2327 107.671 12.8423 108.105 13.607C108.56 14.351 108.787 15.2913 108.787 16.428C108.787 17.6887 108.425 18.8563 107.702 19.931C106.999 20.985 105.935 21.8323 104.509 22.473C103.104 23.1137 101.326 23.434 99.1769 23.434ZM120.845 23.279C118.696 23.279 117.022 22.752 115.823 21.698C114.624 20.6233 114.025 19.0113 114.025 16.862V2.447H119.915V16.8C119.915 17.3993 120.08 17.8747 120.411 18.226C120.742 18.5567 121.165 18.722 121.682 18.722C122.385 18.722 122.984 18.5463 123.48 18.195L124.937 22.318C124.441 22.6487 123.831 22.8863 123.108 23.031C122.385 23.1963 121.63 23.279 120.845 23.279ZM111.576 11.22V6.818H123.759V11.22H111.576ZM137.156 23.279C135.317 23.279 133.684 22.907 132.258 22.163C130.832 21.419 129.706 20.396 128.879 19.094C128.073 17.7713 127.67 16.2627 127.67 14.568C127.67 12.8733 128.073 11.375 128.879 10.073C129.706 8.771 130.832 7.75833 132.258 7.035C133.684 6.291 135.317 5.919 137.156 5.919C138.995 5.919 140.628 6.291 142.054 7.035C143.501 7.75833 144.627 8.771 145.433 10.073C146.239 11.375 146.642 12.8733 146.642 14.568C146.642 16.2627 146.239 17.7713 145.433 19.094C144.627 20.396 143.501 21.419 142.054 22.163C140.628 22.907 138.995 23.279 137.156 23.279ZM137.156 18.598C137.838 18.598 138.437 18.443 138.954 18.133C139.491 17.823 139.915 17.3683 140.225 16.769C140.535 16.149 140.69 15.4153 140.69 14.568C140.69 13.7207 140.535 13.0077 140.225 12.429C139.915 11.8297 139.491 11.375 138.954 11.065C138.437 10.755 137.838 10.6 137.156 10.6C136.495 10.6 135.895 10.755 135.358 11.065C134.841 11.375 134.418 11.8297 134.087 12.429C133.777 13.0077 133.622 13.7207 133.622 14.568C133.622 15.4153 133.777 16.149 134.087 16.769C134.418 17.3683 134.841 17.823 135.358 18.133C135.895 18.443 136.495 18.598 137.156 18.598ZM151.37 23V6.198H156.981V11.096L156.144 9.701C156.64 8.44033 157.446 7.5 158.562 6.88C159.678 6.23933 161.032 5.919 162.623 5.919V11.22C162.355 11.1787 162.117 11.158 161.91 11.158C161.724 11.1373 161.518 11.127 161.29 11.127C160.092 11.127 159.12 11.4577 158.376 12.119C157.632 12.7597 157.26 13.8137 157.26 15.281V23H151.37ZM175.707 23.279C173.723 23.279 171.987 22.907 170.499 22.163C169.031 21.3983 167.884 20.365 167.058 19.063C166.252 17.7403 165.849 16.242 165.849 14.568C165.849 12.894 166.241 11.406 167.027 10.104C167.833 8.78133 168.938 7.75833 170.344 7.035C171.749 6.291 173.33 5.919 175.087 5.919C176.74 5.919 178.249 6.26 179.613 6.942C180.977 7.60333 182.062 8.585 182.868 9.887C183.674 11.189 184.077 12.77 184.077 14.63C184.077 14.8367 184.066 15.0743 184.046 15.343C184.025 15.6117 184.004 15.8597 183.984 16.087H170.685V12.987H180.853L178.621 13.855C178.641 13.0903 178.497 12.429 178.187 11.871C177.897 11.313 177.484 10.879 176.947 10.569C176.43 10.259 175.82 10.104 175.118 10.104C174.415 10.104 173.795 10.259 173.258 10.569C172.741 10.879 172.338 11.3233 172.049 11.902C171.759 12.46 171.615 13.1213 171.615 13.886V14.785C171.615 15.6117 171.78 16.3247 172.111 16.924C172.462 17.5233 172.958 17.9883 173.599 18.319C174.239 18.629 175.004 18.784 175.893 18.784C176.719 18.784 177.422 18.6703 178.001 18.443C178.6 18.195 179.189 17.823 179.768 17.327L182.868 20.551C182.062 21.4397 181.07 22.1217 179.892 22.597C178.714 23.0517 177.319 23.279 175.707 23.279Z" fill="white"/>
</svg>
